<svg width="7" height="12" viewBox="0 0 7 12" fill="none" xmlns="http://www.w3.org/2000/svg">
<path d="M5.72727 12C5.72727 12 7 12 7 10.9091V1.09086C6.99998 0 5.72727 0 5.72727 0H1.27273C1.27273 0 0 0 0 1.09086V10.9091C1.7704e-05 12 1.27273 12 1.27273 12H5.72727ZM3.5 11.5458C3.14873 11.5458 2.86365 11.3018 2.86365 11.0012C2.86365 10.7005 3.14873 10.4566 3.5 10.4566C3.85128 10.4566 4.13635 10.7006 4.13635 11.0012C4.13635 11.3018 3.85128 11.5458 3.5 11.5458ZM2.54545 0.66497C2.54545 0.597439 2.583 0.544606 2.63008 0.544606H4.36989C4.41634 0.544606 4.45453 0.59853 4.45453 0.66497V0.697106C4.45453 0.764636 4.41634 0.81747 4.36989 0.81747H2.63008C2.58362 0.81747 2.54545 0.763545 2.54545 0.697106V0.66497ZM0.636372 1.36153H6.36363V10.0753H0.636372V1.36153Z" fill="#980000"/>
</svg>
