<svg width="16" height="15" fill="none" xmlns="http://www.w3.org/2000/svg"><path d="M11.585 0h-7.17C1.981 0 0 1.857 0 4.14v6.72C0 13.143 1.98 15 4.415 15h7.17C14.018 15 16 13.143 16 10.86V4.14C16 1.856 14.02 0 11.585 0zm2.995 10.86c0 1.55-1.344 2.81-2.995 2.81h-7.17c-1.652 0-2.995-1.26-2.995-2.81V4.14c0-1.55 1.343-2.81 2.995-2.81h7.17c1.651 0 2.995 1.26 2.995 2.81v6.72z" fill="#515151"/><path d="M8 3.635c-2.273 0-4.123 1.734-4.123 3.865 0 2.131 1.85 3.865 4.123 3.865s4.123-1.734 4.123-3.865c0-2.131-1.85-3.865-4.123-3.865zm0 6.4c-1.49 0-2.703-1.138-2.703-2.535 0-1.397 1.212-2.534 2.703-2.534 1.49 0 2.703 1.137 2.703 2.534 0 1.397-1.213 2.534-2.703 2.534zm4.296-7.528a1.08 1.08 0 00-.736.285.95.95 0 00-.305.69.95.95 0 00.305.69 1.088 1.088 0 001.472 0 .953.953 0 00.305-.69.95.95 0 00-.305-.69 1.082 1.082 0 00-.736-.285z" fill="#515151"/></svg>