<svg width="19" height="16" fill="none" xmlns="http://www.w3.org/2000/svg"><path d="M19 1.9a7.552 7.552 0 01-2.242.625A3.898 3.898 0 0018.47.3a7.48 7.48 0 01-2.472.975C15.227.425 14.278 0 13.153 0c-1.077 0-1.995.394-2.755 1.181-.76.788-1.14 1.74-1.14 2.856 0 .3.033.609.097.925A10.552 10.552 0 014.876 3.72 11.128 11.128 0 011.327.737a4.067 4.067 0 00-.53 2.038c0 .692.156 1.333.47 1.925.313.592.735 1.07 1.266 1.437a3.76 3.76 0 01-1.76-.512v.05c0 .975.295 1.831.886 2.569.59.737 1.336 1.202 2.236 1.393a3.9 3.9 0 01-1.025.138c-.225 0-.47-.02-.735-.062a3.95 3.95 0 001.374 1.993c.667.521 1.423.79 2.267.807-1.415 1.15-3.026 1.725-4.835 1.725-.345 0-.659-.017-.94-.05A10.536 10.536 0 005.98 16c1.382 0 2.68-.227 3.893-.681 1.214-.454 2.251-1.063 3.111-1.825a12.09 12.09 0 002.224-2.631 11.936 11.936 0 001.85-6.35 8.29 8.29 0 00-.011-.526A8.327 8.327 0 0019 1.9z" fill="#515151"/></svg>