<svg width="17" height="18" fill="none" xmlns="http://www.w3.org/2000/svg"><path d="M10.357 1.718v3.957c0 .342.03.593.09.753.096.248.316.372.658.372.371 0 .755-.207 1.149-.623v.553h1.016V1.718h-1.016v3.827c-.223.288-.435.432-.636.432-.134 0-.212-.074-.234-.221a2.356 2.356 0 01-.011-.352V1.718h-1.016zM8.036 6.8c.513 0 .907-.17 1.183-.512.208-.248.312-.643.312-1.185V3.345c0-.536-.104-.927-.312-1.175-.276-.342-.67-.513-1.183-.513-.499 0-.89.171-1.172.513-.209.248-.313.64-.313 1.175v1.758c0 .536.104.93.313 1.185.282.341.673.512 1.172.512zm-.48-3.636c0-.462.16-.693.48-.693.32 0 .48.231.48.693v2.11c0 .468-.16.703-.48.703-.32 0-.48-.235-.48-.704V3.164zM5.19 6.73V4.008L6.54 0H5.402l-.76 2.642L3.85 0H2.667c.209.563.45 1.189.726 1.878.35.925.576 1.634.68 2.13V6.73H5.19zm10.418 1.577a2.156 2.156 0 00-1.144-.472c-1.369-.134-3.434-.201-6.194-.201s-4.821.067-6.183.2a2.144 2.144 0 00-1.15.473 1.88 1.88 0 00-.647.995C.096 10.078 0 11.25 0 12.817c0 1.594.097 2.766.29 3.516.097.395.31.726.642.994.33.268.712.422 1.144.462 1.369.14 3.433.211 6.194.211 2.76 0 4.825-.07 6.194-.21.431-.041.81-.195 1.138-.463.328-.268.543-.6.648-.994.193-.777.29-1.949.29-3.516 0-1.594-.097-2.765-.29-3.515a1.809 1.809 0 00-.642-.995zM4.721 10.316H3.527v5.715H2.41v-5.715H1.239v-.944h3.482v.944zm3.013 5.715h-.993v-.542c-.402.408-.781.612-1.139.612-.342 0-.558-.124-.647-.371-.06-.161-.09-.405-.09-.734V11.07h.994v3.656c0 .215.004.332.011.352.023.14.1.21.235.21.2 0 .413-.14.636-.421V11.07h.993v4.962zm3.795-1.486c0 .489-.034.823-.1 1.004-.127.368-.391.552-.793.552-.357 0-.703-.184-1.038-.552v.482h-.993v-6.66h.993v2.18c.32-.361.666-.542 1.038-.542.402 0 .666.188.792.562.067.175.1.506.1.995v1.979zm3.772-.824h-1.998v.874c0 .462.171.693.514.693.245 0 .394-.12.446-.362.015-.067.023-.27.023-.613H15.3v.131c0 .329-.008.522-.022.583-.023.18-.1.361-.235.542-.268.355-.67.533-1.205.533-.513 0-.915-.171-1.205-.513-.216-.248-.324-.636-.324-1.165v-1.738c0-.528.104-.917.312-1.165.29-.341.688-.512 1.194-.512.499 0 .893.17 1.183.512.201.248.302.636.302 1.165v1.035z" fill="#515151"/><path d="M13.806 11.822c-.335 0-.503.228-.503.684v.462h1.005v-.463c0-.455-.168-.683-.502-.683zm-3.706 0c-.17 0-.338.074-.502.222v3.023c.164.147.331.22.502.22.29 0 .436-.223.436-.672v-2.12c0-.448-.146-.673-.436-.673z" fill="#515151"/></svg>